<svg id="e529Uz1xweI1" xmlns="http://www.w3.org/2000/svg" xmlns:xlink="http://www.w3.org/1999/xlink" viewBox="0 0 110 134" shape-rendering="geometricPrecision" text-rendering="geometricPrecision">
<style><![CDATA[
#e529Uz1xweI4_to {animation: e529Uz1xweI4_to__to 2000ms linear infinite normal forwards}@keyframes e529Uz1xweI4_to__to { 0% {transform: translate(55.102001px,14.8367px)} 35% {transform: translate(55.102001px,14.8367px)} 100% {transform: translate(55.102001px,63.38776px)}} #e529Uz1xweI4 {animation: e529Uz1xweI4_c_o 2000ms linear infinite normal forwards}@keyframes e529Uz1xweI4_c_o { 0% {opacity: 1} 35% {opacity: 1} 70% {opacity: 0} 100% {opacity: 0}}
]]></style>
<path d="M7.80469,127.125c0-.266-.04167-.5-.125-.703-.07813-.208-.21875-.396-.42188-.563-.19791-.166-.47396-.325-.82812-.476-.34896-.151-.79167-.305-1.32813-.461-.5625-.167-1.07031-.352-1.52344-.555-.45312-.208-.84114-.445-1.16406-.711-.32291-.265-.57031-.57-.74218-.914s-.25782-.737-.25782-1.18c0-.442.09115-.851.27344-1.226s.44271-.701.78125-.977c.34375-.281.7526-.5,1.22656-.656s1.00261-.234,1.58594-.234c.85417,0,1.57813.164,2.17187.492.59896.323,1.05469.747,1.36719,1.273.3125.521.46875,1.078.46875,1.672h-1.5c0-.427-.09114-.804-.27344-1.133-.18229-.333-.45833-.593-.82812-.781-.36979-.193-.83854-.289-1.40625-.289-.53646,0-.97917.081-1.32813.242-.34895.162-.60937.381-.78124.657-.16667.276-.25.591-.25.945c0,.239.04947.458.14843.656.10417.193.26302.373.47657.539.21874.167.49479.32.82812.461.33854.141.74219.276,1.21094.406.64583.183,1.20312.386,1.67187.61s.85417.476,1.15625.758c.30729.276.53386.591.67969.945.15104.349.22656.745.22656,1.187c0,.464-.09375.883-.28125,1.258s-.45573.695-.80468.961-.76823.471-1.25782.617c-.48437.141-1.02604.211-1.625.211-.52604,0-1.04427-.073-1.55468-.218-.50521-.146-.96615-.365-1.38282-.657-.41146-.291-.74218-.651-.99218-1.078-.2448-.432-.36719-.932-.36719-1.5h1.5c0,.391.07552.727.22656,1.008.15104.276.35677.505.61719.687.26562.183.5651.318.89844.407.33854.083.6901.125,1.05468.125.52604,0,.97136-.073,1.33594-.219s.64062-.354.82812-.625c.19271-.271.28907-.591.28907-.961Zm10.30471-.742h1.5c-.0782.719-.2839,1.362-.6172,1.929-.3333.568-.8047,1.019-1.4141,1.352-.6093.328-1.3698.492-2.2812.492-.6667,0-1.2735-.125-1.8203-.375-.5417-.25-1.0078-.604-1.3985-1.062-.3906-.464-.6927-1.018-.9062-1.664-.2084-.651-.3125-1.375-.3125-2.172v-1.133c0-.797.1041-1.518.3125-2.164.2135-.651.5182-1.208.914-1.672.4011-.463.8829-.82,1.4453-1.07.5626-.25,1.1954-.375,1.8985-.375.8594,0,1.5859.161,2.1797.484.5937.323,1.0547.771,1.3828,1.344.3333.568.539,1.226.6172,1.976h-1.5c-.0729-.531-.2084-.987-.4063-1.367-.1979-.385-.4791-.682-.8437-.89-.3646-.209-.8412-.313-1.4297-.313-.5052,0-.9505.096-1.3359.289-.3803.193-.7006.466-.961.82-.2552.355-.4479.779-.5781,1.274s-.1953,1.044-.1953,1.648v1.149c0,.557.0573,1.081.1718,1.57.1198.49.2995.919.5391,1.289s.5443.662.9141.875c.3698.209.8073.313,1.3125.313.6406,0,1.151-.102,1.5312-.305s.6667-.495.8594-.875c.1979-.38.3385-.836.4219-1.367Zm3.5547-7.758h3.7656c.8542,0,1.5755.13,2.1641.391.5937.26,1.0442.645,1.3515,1.156.3125.505.4688,1.127.4688,1.867c0,.521-.1068.997-.3203,1.43-.2084.427-.5105.791-.9063,1.093-.3906.297-.8594.519-1.4063.665l-.4218.164h-3.5391l-.0156-1.227h2.6719c.5416,0,.9922-.094,1.3515-.281.3594-.193.6302-.451.8125-.774s.2735-.679.2735-1.07c0-.437-.086-.82-.2579-1.148-.1718-.329-.4427-.581-.8124-.758-.3646-.182-.836-.274-1.4141-.274h-2.2578v10.141h-1.5078v-11.375ZM28.3125,130l-2.7656-5.156l1.5703-.008l2.8047,5.07v.094h-1.6094Zm11.9687-6.047v.719c0,.854-.1067,1.62-.3203,2.297s-.5208,1.252-.9218,1.726-.8829.836-1.4453,1.086c-.5573.25-1.1823.375-1.875.375-.6719,0-1.2891-.125-1.8516-.375-.5573-.25-1.0417-.612-1.4531-1.086-.4063-.474-.7214-1.049-.9453-1.726-.224-.677-.336-1.443-.336-2.297v-.719c0-.854.1094-1.617.3281-2.289.224-.677.5391-1.253.9453-1.726.4063-.48.8881-.844,1.4454-1.094.5625-.25,1.1796-.375,1.8515-.375.6927,0,1.3177.125,1.875.375.5625.25,1.0443.614,1.4453,1.094.4063.473.7162,1.049.9297,1.726.2188.672.3281,1.435.3281,2.289Zm-1.4921.719v-.734c0-.678-.0703-1.277-.211-1.797-.1354-.521-.3359-.959-.6015-1.313s-.5912-.622-.9766-.805c-.3802-.182-.8125-.273-1.2969-.273-.4687,0-.8932.091-1.2734.273-.375.183-.6979.451-.9688.805-.2656.354-.4713.792-.6171,1.313-.1459.52-.2188,1.119-.2188,1.797v.734c0,.682.0729,1.286.2188,1.812.1458.521.3541.961.625,1.321.276.354.6015.622.9765.804.3802.183.8047.274,1.2735.274.4895,0,.9244-.091,1.3046-.274.3802-.182.7006-.45.961-.804.2656-.36.4661-.8.6015-1.321.1355-.526.2032-1.13.2032-1.812Zm10.6484,4.101v1.227h-5.6875v-1.227h5.6875Zm-5.3906-10.148v11.375h-1.5078v-11.375h1.5078Zm14.0156,10.148v1.227h-5.6875v-1.227h5.6875Zm-5.3906-10.148v11.375h-1.5078v-11.375h1.5078ZM66.8359,130h-2.375l.0157-1.227h2.3593c.8125,0,1.4896-.169,2.0313-.507.5417-.344.9479-.823,1.2187-1.438.2761-.62.4141-1.344.4141-2.172v-.695c0-.651-.0781-1.229-.2344-1.734-.1562-.511-.3854-.941-.6875-1.289-.3021-.355-.6719-.623-1.1093-.805-.4323-.182-.9297-.274-1.4922-.274h-2.5625v-1.234h2.5625c.7448,0,1.4244.125,2.039.375.6146.245,1.1433.602,1.586,1.07.4479.464.7916,1.026,1.0312,1.688.2396.656.3594,1.396.3594,2.219v.679c0,.823-.1198,1.565-.3594,2.227-.2396.656-.5859,1.216-1.039,1.679-.448.464-.9896.821-1.625,1.071-.6303.245-1.3412.367-2.1329.367Zm-1.5703-11.375v11.375h-1.5078v-11.375h1.5078Zm17.75,5.328v.719c0,.854-.1067,1.62-.3203,2.297-.2135.677-.5208,1.252-.9219,1.726-.401.474-.8828.836-1.4453,1.086-.5573.25-1.1823.375-1.875.375-.6719,0-1.289-.125-1.8515-.375-.5573-.25-1.0417-.612-1.4532-1.086-.4062-.474-.7213-1.049-.9453-1.726s-.3359-1.443-.3359-2.297v-.719c0-.854.1094-1.617.3281-2.289.224-.677.5391-1.253.9453-1.726.4063-.48.888-.844,1.4453-1.094.5625-.25,1.1797-.375,1.8516-.375.6927,0,1.3177.125,1.875.375.5625.25,1.0443.614,1.4453,1.094.4063.473.7162,1.049.9297,1.726.2187.672.3281,1.435.3281,2.289Zm-1.4922.719v-.734c0-.678-.0703-1.277-.2109-1.797-.1354-.521-.3359-.959-.6016-1.313-.2656-.354-.5911-.622-.9765-.805-.3802-.182-.8125-.273-1.2969-.273-.4687,0-.8932.091-1.2734.273-.375.183-.698.451-.9688.805-.2656.354-.4713.792-.6172,1.313-.1458.52-.2187,1.119-.2187,1.797v.734c0,.682.0729,1.286.2187,1.812.1459.521.3542.961.625,1.321.2761.354.6016.622.9766.804.3802.183.8047.274,1.2734.274.4896,0,.9245-.091,1.3047-.274.3802-.182.7005-.45.961-.804.2656-.36.4661-.8.6015-1.321.1354-.526.2031-1.13.2031-1.812Zm6.7422,1.89l2.2578-7.937h1.0938l-.6328,3.086L88.5547,130h-1.0859l.7968-3.438Zm-2.3359-7.937l1.7969,7.781.539,3.594h-1.0781l-2.7578-11.375h1.5Zm8.6094,7.773l1.7578-7.773h1.5078L95.0547,130h-1.0781l.5625-3.602Zm-2.7579-7.773l2.1954,7.937.7968,3.438h-1.0859l-2.3437-8.289-.6407-3.086h1.0781Zm16.4458,0v11.375h-1.516l-5.727-8.773v8.773h-1.5074v-11.375h1.5074l5.75,8.797v-8.797h1.493Z" fill="#fff"/><rect width="53" height="92" rx="26.5" ry="26.5" transform="translate(28 2)" fill="none" stroke="#fff" stroke-width="4"/><g id="e529Uz1xweI4_to" transform="translate(55.102001,14.8367)"><circle id="e529Uz1xweI4" r="3.61224" transform="translate(-0.000001,0)" fill="#fff"/></g></svg>
