<svg width="973" height="744" viewBox="0 0 973 744" fill="none" xmlns="http://www.w3.org/2000/svg">
<g filter="url(#filter0_d_130_153)">
<rect x="32" y="28" width="838" height="605" rx="51" fill="#0F0F0F"/>
<rect x="32" y="28" width="838" height="605" rx="51" stroke="#979797" stroke-width="3"/>
</g>
<g filter="url(#filter1_d_130_153)">
<rect x="66" y="67" width="838" height="605" rx="51" fill="#0F0F0F"/>
<rect x="66" y="67" width="838" height="605" rx="51" stroke="#979797" stroke-width="3"/>
</g>
<g filter="url(#filter2_d_130_153)">
<rect x="103" y="103" width="838" height="605" rx="51" fill="#0F0F0F"/>
<rect x="103" y="103" width="838" height="605" rx="51" stroke="#979797" stroke-width="3"/>
</g>
<rect width="448.424" height="24.2739" rx="12.1369" transform="matrix(1 0 0 -1 305.369 170.637)" fill="black" stroke="#40FFAF" stroke-width="2"/>
<rect width="40.1274" height="24.2739" rx="12.1369" transform="matrix(1 0 0 -1 247.185 170.637)" fill="black" stroke="#40FFAF" stroke-width="2"/>
<rect width="40.1274" height="24.2739" rx="12.1369" transform="matrix(1 0 0 -1 189 170.637)" fill="black" stroke="#40FFAF" stroke-width="2"/>
<rect width="40.1274" height="24.2739" rx="12.1369" transform="matrix(1 0 0 -1 778.873 170.637)" fill="black" stroke="#40FFAF" stroke-width="2"/>
<rect x="875" y="127" width="9" height="9" rx="4.5" fill="#EE5C5D"/>
<rect x="887" y="127" width="9" height="9" rx="4.5" fill="#E8B529"/>
<rect x="899" y="127" width="9" height="9" rx="4.5" fill="#04BC38"/>
<rect x="184" y="209" width="657" height="463" rx="20" fill="black" stroke="#40FFAF" stroke-width="2"/>
<rect x="546" y="320" width="268" height="271" rx="20" fill="#272727"/>
<rect x="220" y="246" width="496" height="14" rx="7" fill="#272727"/>
<rect x="220" y="275" width="366" height="14" rx="7" fill="#272727"/>
<rect x="220" y="304" width="252" height="14" rx="7" fill="#272727"/>
<rect x="221" y="507" width="252" height="14" rx="7" fill="#272727"/>
<rect x="221" y="333" width="252" height="14" rx="7" fill="#272727"/>
<rect x="222" y="536" width="252" height="14" rx="7" fill="#272727"/>
<rect x="221" y="362" width="222" height="14" rx="7" fill="#272727"/>
<rect x="222" y="565" width="222" height="14" rx="7" fill="#272727"/>
<rect x="221" y="391" width="222" height="14" rx="7" fill="#272727"/>
<rect x="222" y="594" width="222" height="14" rx="7" fill="#272727"/>
<rect x="221" y="420" width="251" height="14" rx="7" fill="#272727"/>
<rect x="222" y="623" width="251" height="14" rx="7" fill="#272727"/>
<rect x="221" y="449" width="161" height="14" rx="7" fill="#272727"/>
<rect x="220" y="478" width="218" height="14" rx="7" fill="#272727"/>
<defs>
<filter id="filter0_d_130_153" x="0.5" y="0.5" width="901" height="668" filterUnits="userSpaceOnUse" color-interpolation-filters="sRGB">
<feFlood flood-opacity="0" result="BackgroundImageFix"/>
<feColorMatrix in="SourceAlpha" type="matrix" values="0 0 0 0 0 0 0 0 0 0 0 0 0 0 0 0 0 0 127 0" result="hardAlpha"/>
<feMorphology radius="10" operator="dilate" in="SourceAlpha" result="effect1_dropShadow_130_153"/>
<feOffset dy="4"/>
<feGaussianBlur stdDeviation="10"/>
<feComposite in2="hardAlpha" operator="out"/>
<feColorMatrix type="matrix" values="0 0 0 0 0 0 0 0 0 0 0 0 0 0 0 0 0 0 0.5 0"/>
<feBlend mode="normal" in2="BackgroundImageFix" result="effect1_dropShadow_130_153"/>
<feBlend mode="normal" in="SourceGraphic" in2="effect1_dropShadow_130_153" result="shape"/>
</filter>
<filter id="filter1_d_130_153" x="34.5" y="39.5" width="901" height="668" filterUnits="userSpaceOnUse" color-interpolation-filters="sRGB">
<feFlood flood-opacity="0" result="BackgroundImageFix"/>
<feColorMatrix in="SourceAlpha" type="matrix" values="0 0 0 0 0 0 0 0 0 0 0 0 0 0 0 0 0 0 127 0" result="hardAlpha"/>
<feMorphology radius="10" operator="dilate" in="SourceAlpha" result="effect1_dropShadow_130_153"/>
<feOffset dy="4"/>
<feGaussianBlur stdDeviation="10"/>
<feComposite in2="hardAlpha" operator="out"/>
<feColorMatrix type="matrix" values="0 0 0 0 0 0 0 0 0 0 0 0 0 0 0 0 0 0 0.5 0"/>
<feBlend mode="normal" in2="BackgroundImageFix" result="effect1_dropShadow_130_153"/>
<feBlend mode="normal" in="SourceGraphic" in2="effect1_dropShadow_130_153" result="shape"/>
</filter>
<filter id="filter2_d_130_153" x="71.5" y="75.5" width="901" height="668" filterUnits="userSpaceOnUse" color-interpolation-filters="sRGB">
<feFlood flood-opacity="0" result="BackgroundImageFix"/>
<feColorMatrix in="SourceAlpha" type="matrix" values="0 0 0 0 0 0 0 0 0 0 0 0 0 0 0 0 0 0 127 0" result="hardAlpha"/>
<feMorphology radius="10" operator="dilate" in="SourceAlpha" result="effect1_dropShadow_130_153"/>
<feOffset dy="4"/>
<feGaussianBlur stdDeviation="10"/>
<feComposite in2="hardAlpha" operator="out"/>
<feColorMatrix type="matrix" values="0 0 0 0 0 0 0 0 0 0 0 0 0 0 0 0 0 0 0.5 0"/>
<feBlend mode="normal" in2="BackgroundImageFix" result="effect1_dropShadow_130_153"/>
<feBlend mode="normal" in="SourceGraphic" in2="effect1_dropShadow_130_153" result="shape"/>
</filter>
</defs>
</svg>
